<?xml version="1.0"?>
<svg width="250mm" height="200mm" viewBox="0 0   2500    1500"
     xmlns="http://www.w3.org/2000/svg"
     xmlns:xlink="http://www.w3.org/1999/xlink"
     xmlns:ev="http://www.w3.org/2001/xml-events">
<g font-family="Verdana" font-size="8" >
  <line x1="   300" y1="   590" x2="   300" y2="   670" style = "stroke:silver  ;"/>
  <line x1="   300" y1="   590" x2="   300" y2="   750" style = "stroke:silver  ;"/>
  <line x1="   300" y1="   590" x2="   300" y2="   830" style = "stroke:silver  ;"/>
  <line x1="   300" y1="   590" x2="   300" y2="   910" style = "stroke:silver  ;"/>
  <line x1="   300" y1="   590" x2="   300" y2="   990" style = "stroke:silver  ;"/>
  <line x1="   300" y1="   590" x2="   300" y2="  1070" style = "stroke:silver  ;"/>
  <line x1="   300" y1="   670" x2="   300" y2="   750" style = "stroke:silver  ;"/>
  <line x1="   300" y1="   670" x2="   300" y2="   830" style = "stroke:silver  ;"/>
  <line x1="   300" y1="   670" x2="   300" y2="   910" style = "stroke:silver  ;"/>
  <line x1="   300" y1="   670" x2="   300" y2="   990" style = "stroke:silver  ;"/>
  <line x1="   300" y1="   670" x2="   300" y2="  1070" style = "stroke:silver  ;"/>
  <line x1="   300" y1="   750" x2="   300" y2="   830" style = "stroke:silver  ;"/>
  <line x1="   300" y1="   750" x2="   300" y2="   910" style = "stroke:silver  ;"/>
  <line x1="   300" y1="   750" x2="   300" y2="   990" style = "stroke:silver  ;"/>
  <line x1="   300" y1="   750" x2="   300" y2="  1070" style = "stroke:silver  ;"/>
  <line x1="   300" y1="   830" x2="   300" y2="   910" style = "stroke:silver  ;"/>
  <line x1="   300" y1="   830" x2="   300" y2="   990" style = "stroke:silver  ;"/>
  <line x1="   300" y1="   830" x2="   300" y2="  1070" style = "stroke:silver  ;"/>
  <line x1="   300" y1="   910" x2="   300" y2="   990" style = "stroke:silver  ;"/>
  <line x1="   300" y1="   910" x2="   300" y2="  1070" style = "stroke:silver  ;"/>
  <line x1="   300" y1="   990" x2="   300" y2="  1070" style = "stroke:silver  ;"/>
  <rect x="  1200" y="    20" width="   200" height="    20" style = "fill:chartreuse; stroke: Black;"/>     1
  <text x="  1202" y="    33">IT_ROOM_THERMAL_ZONE</text>
  <rect x="   200" y="   580" width="   200" height="    20" style = "fill:snow; stroke: Black;"/>     9
  <text x="   202" y="   593">OutdoorAir:Node</text>
  <rect x="   200" y="   660" width="   200" height="    20" style = "fill:snow; stroke: Black;"/>    10
  <text x="   202" y="   673">OutdoorAir:Node</text>
  <rect x="   200" y="   740" width="   200" height="    20" style = "fill:snow; stroke: Black;"/>    11
  <text x="   202" y="   753">OutdoorAir:Node</text>
  <rect x="   200" y="   820" width="   200" height="    20" style = "fill:snow; stroke: Black;"/>    12
  <text x="   202" y="   833">OutdoorAir:Node</text>
  <rect x="   200" y="   900" width="   200" height="    20" style = "fill:snow; stroke: Black;"/>    13
  <text x="   202" y="   913">OutdoorAir:Node</text>
  <rect x="   200" y="   980" width="   200" height="    20" style = "fill:snow; stroke: Black;"/>    14
  <text x="   202" y="   993">OutdoorAir:Node</text>
  <rect x="   200" y="  1060" width="   200" height="    20" style = "fill:snow; stroke: Black;"/>    15
  <text x="   202" y="  1073">OutdoorAir:Node</text>
  <rect x="   450" y="    20" width="   200" height="    20" style = "fill:silver; stroke: Black;"/>    18
  <text x="   452" y="    33">IT_ROOM_THERMAL_ZONE VRF SUPPLY FAN</text>
  <rect x="   450" y="   100" width="   200" height="    20" style = "fill:silver; stroke: Black;"/>    19
  <text x="   452" y="   113">LOBBY_THERMAL_ZONE VRF SUPPLY FAN</text>
  <rect x="   450" y="   180" width="   200" height="    20" style = "fill:silver; stroke: Black;"/>    20
  <text x="   452" y="   193">OFFICE_THERMAL_ZONE VRF SUPPLY FAN</text>
  <rect x="   450" y="   260" width="   200" height="    20" style = "fill:silver; stroke: Black;"/>    21
  <text  x="   452" y="   268">RESTROOM_ONE_THERMAL_ZONE VRF
  <tspan x="   452" y="   276">SUPPLY FAN</tspan></text>
  <rect x="   450" y="   340" width="   200" height="    20" style = "fill:silver; stroke: Black;"/>    22
  <text  x="   452" y="   348">RESTROOM_TWO_THERMAL_ZONE VRF
  <tspan x="   452" y="   356">SUPPLY FAN</tspan></text>
  <rect x="   450" y="   420" width="   200" height="    20" style = "fill:silver; stroke: Black;"/>    23
  <text x="   452" y="   433">STAIRS_THERMAL_ZONE VRF SUPPLY FAN</text>
  <rect x="   450" y="   500" width="   200" height="    20" style = "fill:silver; stroke: Black;"/>    24
  <text x="   452" y="   513">STORAGE_THERMAL_ZONE VRF SUPPLY FAN</text>
  <rect x="   200" y="    20" width="   200" height="    20" style = "fill:lawngreen; stroke: Black;"/>    25
  <text  x="   202" y="    28">IT_ROOM_THERMAL_ZONE VRF OA MIXING
  <tspan x="   202" y="    36">BOX</tspan></text>
  <rect x="   200" y="   100" width="   200" height="    20" style = "fill:lawngreen; stroke: Black;"/>    26
  <text x="   202" y="   113">LOBBY_THERMAL_ZONE VRF OA MIXING BOX</text>
  <rect x="   200" y="   180" width="   200" height="    20" style = "fill:lawngreen; stroke: Black;"/>    27
  <text  x="   202" y="   188">OFFICE_THERMAL_ZONE VRF OA MIXING
  <tspan x="   202" y="   196">BOX</tspan></text>
  <rect x="   200" y="   260" width="   200" height="    20" style = "fill:lawngreen; stroke: Black;"/>    28
  <text  x="   202" y="   268">RESTROOM_ONE_THERMAL_ZONE VRF OA
  <tspan x="   202" y="   276">MIXING BOX</tspan></text>
  <rect x="   200" y="   340" width="   200" height="    20" style = "fill:lawngreen; stroke: Black;"/>    29
  <text  x="   202" y="   348">RESTROOM_TWO_THERMAL_ZONE VRF OA
  <tspan x="   202" y="   356">MIXING BOX</tspan></text>
  <rect x="   200" y="   420" width="   200" height="    20" style = "fill:lawngreen; stroke: Black;"/>    30
  <text  x="   202" y="   428">STAIRS_THERMAL_ZONE VRF OA MIXING
  <tspan x="   202" y="   436">BOX</tspan></text>
  <rect x="   200" y="   500" width="   200" height="    20" style = "fill:lawngreen; stroke: Black;"/>    31
  <text  x="   202" y="   508">STORAGE_THERMAL_ZONE VRF OA MIXING
  <tspan x="   202" y="   516">BOX</tspan></text>
  <rect x="   700" y="    20" width="   200" height="    20" style = "fill:aliceblue; stroke: Black;"/>    32
  <text  x="   702" y="    28">IT_ROOM_THERMAL_ZONE VRF COOLING
  <tspan x="   702" y="    36">COIL</tspan></text>
  <rect x="   700" y="   100" width="   200" height="    20" style = "fill:aliceblue; stroke: Black;"/>    33
  <text x="   702" y="   113">LOBBY_THERMAL_ZONE VRF COOLING COIL</text>
  <rect x="   700" y="   180" width="   200" height="    20" style = "fill:aliceblue; stroke: Black;"/>    34
  <text x="   702" y="   193">OFFICE_THERMAL_ZONE VRF COOLING COIL</text>
  <rect x="   700" y="   260" width="   200" height="    20" style = "fill:aliceblue; stroke: Black;"/>    35
  <text  x="   702" y="   268">RESTROOM_ONE_THERMAL_ZONE VRF
  <tspan x="   702" y="   276">COOLING COIL</tspan></text>
  <rect x="   700" y="   340" width="   200" height="    20" style = "fill:aliceblue; stroke: Black;"/>    36
  <text  x="   702" y="   348">RESTROOM_TWO_THERMAL_ZONE VRF
  <tspan x="   702" y="   356">COOLING COIL</tspan></text>
  <rect x="   700" y="   420" width="   200" height="    20" style = "fill:aliceblue; stroke: Black;"/>    37
  <text x="   702" y="   433">STAIRS_THERMAL_ZONE VRF COOLING COIL</text>
  <rect x="   700" y="   500" width="   200" height="    20" style = "fill:aliceblue; stroke: Black;"/>    38
  <text  x="   702" y="   508">STORAGE_THERMAL_ZONE VRF COOLING
  <tspan x="   702" y="   516">COIL</tspan></text>
  <rect x="   950" y="    20" width="   200" height="    20" style = "fill:aliceblue; stroke: Black;"/>    39
  <text  x="   952" y="    28">IT_ROOM_THERMAL_ZONE VRF HEATING
  <tspan x="   952" y="    36">COIL</tspan></text>
  <rect x="   950" y="   100" width="   200" height="    20" style = "fill:aliceblue; stroke: Black;"/>    40
  <text x="   952" y="   113">LOBBY_THERMAL_ZONE VRF HEATING COIL</text>
  <rect x="   950" y="   180" width="   200" height="    20" style = "fill:aliceblue; stroke: Black;"/>    41
  <text x="   952" y="   193">OFFICE_THERMAL_ZONE VRF HEATING COIL</text>
  <rect x="   950" y="   260" width="   200" height="    20" style = "fill:aliceblue; stroke: Black;"/>    42
  <text  x="   952" y="   268">RESTROOM_ONE_THERMAL_ZONE VRF
  <tspan x="   952" y="   276">HEATING COIL</tspan></text>
  <rect x="   950" y="   340" width="   200" height="    20" style = "fill:aliceblue; stroke: Black;"/>    43
  <text  x="   952" y="   348">RESTROOM_TWO_THERMAL_ZONE VRF
  <tspan x="   952" y="   356">HEATING COIL</tspan></text>
  <rect x="   950" y="   420" width="   200" height="    20" style = "fill:aliceblue; stroke: Black;"/>    44
  <text x="   952" y="   433">STAIRS_THERMAL_ZONE VRF HEATING COIL</text>
  <rect x="   950" y="   500" width="   200" height="    20" style = "fill:aliceblue; stroke: Black;"/>    45
  <text  x="   952" y="   508">STORAGE_THERMAL_ZONE VRF HEATING
  <tspan x="   952" y="   516">COIL</tspan></text>
  <rect x="  1200" y="   100" width="   200" height="    20" style = "fill:chartreuse; stroke: Black;"/>    46
  <text x="  1202" y="   113">LOBBY_THERMAL_ZONE</text>
  <rect x="  1200" y="   180" width="   200" height="    20" style = "fill:chartreuse; stroke: Black;"/>    47
  <text x="  1202" y="   193">OFFICE_THERMAL_ZONE</text>
  <rect x="  1200" y="   260" width="   200" height="    20" style = "fill:chartreuse; stroke: Black;"/>    48
  <text x="  1202" y="   273">RESTROOM_ONE_THERMAL_ZONE</text>
  <rect x="  1200" y="   340" width="   200" height="    20" style = "fill:chartreuse; stroke: Black;"/>    49
  <text x="  1202" y="   353">RESTROOM_TWO_THERMAL_ZONE</text>
  <rect x="  1200" y="   420" width="   200" height="    20" style = "fill:chartreuse; stroke: Black;"/>    50
  <text x="  1202" y="   433">STAIRS_THERMAL_ZONE</text>
  <rect x="  1200" y="   500" width="   200" height="    20" style = "fill:chartreuse; stroke: Black;"/>    51
  <text x="  1202" y="   513">STORAGE_THERMAL_ZONE</text>
  <line x1="   650" y1="    30" x2="   700" y2="    30" style = "stroke: Black;"/>
  <line x1="   650" y1="   110" x2="   700" y2="   110" style = "stroke: Black;"/>
  <line x1="   650" y1="   190" x2="   700" y2="   190" style = "stroke: Black;"/>
  <line x1="   650" y1="   270" x2="   700" y2="   270" style = "stroke: Black;"/>
  <line x1="   650" y1="   350" x2="   700" y2="   350" style = "stroke: Black;"/>
  <line x1="   650" y1="   430" x2="   700" y2="   430" style = "stroke: Black;"/>
  <line x1="   650" y1="   510" x2="   700" y2="   510" style = "stroke: Black;"/>
  <line x1="   400" y1="    30" x2="   450" y2="    30" style = "stroke: Black;"/>
  <line x1="   400" y1="   110" x2="   450" y2="   110" style = "stroke: Black;"/>
  <line x1="   400" y1="   190" x2="   450" y2="   190" style = "stroke: Black;"/>
  <line x1="   400" y1="   270" x2="   450" y2="   270" style = "stroke: Black;"/>
  <line x1="   400" y1="   350" x2="   450" y2="   350" style = "stroke: Black;"/>
  <line x1="   400" y1="   430" x2="   450" y2="   430" style = "stroke: Black;"/>
  <line x1="   400" y1="   510" x2="   450" y2="   510" style = "stroke: Black;"/>
  <line x1="   900" y1="    30" x2="   950" y2="    30" style = "stroke: Black;"/>
  <line x1="   900" y1="   110" x2="   950" y2="   110" style = "stroke: Black;"/>
  <line x1="   900" y1="   190" x2="   950" y2="   190" style = "stroke: Black;"/>
  <line x1="   900" y1="   270" x2="   950" y2="   270" style = "stroke: Black;"/>
  <line x1="   900" y1="   350" x2="   950" y2="   350" style = "stroke: Black;"/>
  <line x1="   900" y1="   430" x2="   950" y2="   430" style = "stroke: Black;"/>
  <line x1="   900" y1="   510" x2="   950" y2="   510" style = "stroke: Black;"/>
  <line x1="  1150" y1="    30" x2="  1200" y2="    30" style = "stroke: Black;"/>
  <line x1="  1150" y1="   110" x2="  1200" y2="   110" style = "stroke: Black;"/>
  <line x1="  1150" y1="   190" x2="  1200" y2="   190" style = "stroke: Black;"/>
  <line x1="  1150" y1="   270" x2="  1200" y2="   270" style = "stroke: Black;"/>
  <line x1="  1150" y1="   350" x2="  1200" y2="   350" style = "stroke: Black;"/>
  <line x1="  1150" y1="   430" x2="  1200" y2="   430" style = "stroke: Black;"/>
  <line x1="  1150" y1="   510" x2="  1200" y2="   510" style = "stroke: Black;"/>
  <line x1="   200" y1="    30" x2="   175" y2="    30" style = "stroke: Black;"/>
  <line x1="   175" y1="    30" x2="   175" y2="     0" style = "stroke: Black;"/>
  <line x1="   175" y1="     0" x2="  1425" y2="     0" style = "stroke: Black;"/>
  <line x1="  1425" y1="     0" x2="  1425" y2="    30" style = "stroke: Black;"/>
  <line x1="  1425" y1="    30" x2="  1400" y2="    30" style = "stroke: Black;"/>
  <line x1="   200" y1="   110" x2="   175" y2="   110" style = "stroke: Black;"/>
  <line x1="   175" y1="   110" x2="   175" y2="    80" style = "stroke: Black;"/>
  <line x1="   175" y1="    80" x2="  1425" y2="    80" style = "stroke: Black;"/>
  <line x1="  1425" y1="    80" x2="  1425" y2="   110" style = "stroke: Black;"/>
  <line x1="  1425" y1="   110" x2="  1400" y2="   110" style = "stroke: Black;"/>
  <line x1="   200" y1="   190" x2="   175" y2="   190" style = "stroke: Black;"/>
  <line x1="   175" y1="   190" x2="   175" y2="   160" style = "stroke: Black;"/>
  <line x1="   175" y1="   160" x2="  1425" y2="   160" style = "stroke: Black;"/>
  <line x1="  1425" y1="   160" x2="  1425" y2="   190" style = "stroke: Black;"/>
  <line x1="  1425" y1="   190" x2="  1400" y2="   190" style = "stroke: Black;"/>
  <line x1="   200" y1="   270" x2="   175" y2="   270" style = "stroke: Black;"/>
  <line x1="   175" y1="   270" x2="   175" y2="   240" style = "stroke: Black;"/>
  <line x1="   175" y1="   240" x2="  1425" y2="   240" style = "stroke: Black;"/>
  <line x1="  1425" y1="   240" x2="  1425" y2="   270" style = "stroke: Black;"/>
  <line x1="  1425" y1="   270" x2="  1400" y2="   270" style = "stroke: Black;"/>
  <line x1="   200" y1="   350" x2="   175" y2="   350" style = "stroke: Black;"/>
  <line x1="   175" y1="   350" x2="   175" y2="   320" style = "stroke: Black;"/>
  <line x1="   175" y1="   320" x2="  1425" y2="   320" style = "stroke: Black;"/>
  <line x1="  1425" y1="   320" x2="  1425" y2="   350" style = "stroke: Black;"/>
  <line x1="  1425" y1="   350" x2="  1400" y2="   350" style = "stroke: Black;"/>
  <line x1="   200" y1="   430" x2="   175" y2="   430" style = "stroke: Black;"/>
  <line x1="   175" y1="   430" x2="   175" y2="   400" style = "stroke: Black;"/>
  <line x1="   175" y1="   400" x2="  1425" y2="   400" style = "stroke: Black;"/>
  <line x1="  1425" y1="   400" x2="  1425" y2="   430" style = "stroke: Black;"/>
  <line x1="  1425" y1="   430" x2="  1400" y2="   430" style = "stroke: Black;"/>
  <line x1="   200" y1="   510" x2="   175" y2="   510" style = "stroke: Black;"/>
  <line x1="   175" y1="   510" x2="   175" y2="   480" style = "stroke: Black;"/>
  <line x1="   175" y1="   480" x2="  1425" y2="   480" style = "stroke: Black;"/>
  <line x1="  1425" y1="   480" x2="  1425" y2="   510" style = "stroke: Black;"/>
  <line x1="  1425" y1="   510" x2="  1400" y2="   510" style = "stroke: Black;"/>
  <text x="   200" y="  1120">Unused Non-Parent Objects:</text>
  <text x="   220" y="  1140">SYSTEMVRF VRF HEAT PUMP</text>
  <text x="   200" y="  1180">
The following are not supported: objects related to controls, AirTerminal:SingleDuct:Uncontrolled, or ZoneHVAC:IdealLoadsAirSystem</text>
</g>
</svg>
