<?xml version="1.0"?>
<svg width="250mm" height="200mm" viewBox="0 0   3650    2040"
     xmlns="http://www.w3.org/2000/svg"
     xmlns:xlink="http://www.w3.org/1999/xlink"
     xmlns:ev="http://www.w3.org/2001/xml-events">
<g font-family="Verdana" font-size="8" >
  <line x1="   300" y1="  1550" x2="   300" y2="  1630" style = "stroke:silver  ;"/>
  <line x1="   300" y1="  1550" x2="   300" y2="  1710" style = "stroke:silver  ;"/>
  <line x1="   300" y1="  1550" x2="   300" y2="  1790" style = "stroke:silver  ;"/>
  <line x1="   300" y1="  1550" x2="   300" y2="  1870" style = "stroke:silver  ;"/>
  <line x1="   300" y1="  1550" x2="   300" y2="  1950" style = "stroke:silver  ;"/>
  <line x1="   300" y1="  1550" x2="   300" y2="  2030" style = "stroke:silver  ;"/>
  <line x1="   300" y1="  1630" x2="   300" y2="  1710" style = "stroke:silver  ;"/>
  <line x1="   300" y1="  1630" x2="   300" y2="  1790" style = "stroke:silver  ;"/>
  <line x1="   300" y1="  1630" x2="   300" y2="  1870" style = "stroke:silver  ;"/>
  <line x1="   300" y1="  1630" x2="   300" y2="  1950" style = "stroke:silver  ;"/>
  <line x1="   300" y1="  1630" x2="   300" y2="  2030" style = "stroke:silver  ;"/>
  <line x1="   300" y1="  1710" x2="   300" y2="  1790" style = "stroke:silver  ;"/>
  <line x1="   300" y1="  1710" x2="   300" y2="  1870" style = "stroke:silver  ;"/>
  <line x1="   300" y1="  1710" x2="   300" y2="  1950" style = "stroke:silver  ;"/>
  <line x1="   300" y1="  1710" x2="   300" y2="  2030" style = "stroke:silver  ;"/>
  <line x1="   300" y1="  1790" x2="   300" y2="  1870" style = "stroke:silver  ;"/>
  <line x1="   300" y1="  1790" x2="   300" y2="  1950" style = "stroke:silver  ;"/>
  <line x1="   300" y1="  1790" x2="   300" y2="  2030" style = "stroke:silver  ;"/>
  <line x1="   300" y1="  1870" x2="   300" y2="  1950" style = "stroke:silver  ;"/>
  <line x1="   300" y1="  1870" x2="   300" y2="  2030" style = "stroke:silver  ;"/>
  <line x1="   300" y1="  1950" x2="   300" y2="  2030" style = "stroke:silver  ;"/>
  <line x1="  2750" y1="   830" x2="  1050" y2="    30" style = "stroke:silver  ;"/>
  <line x1="  2750" y1="   870" x2="  1050" y2="   110" style = "stroke:silver  ;"/>
  <line x1="  2750" y1="   910" x2="  1050" y2="   190" style = "stroke:silver  ;"/>
  <line x1="  2750" y1="   950" x2="  1050" y2="   270" style = "stroke:silver  ;"/>
  <line x1="  2750" y1="   990" x2="  1050" y2="   350" style = "stroke:silver  ;"/>
  <line x1="  2750" y1="  1030" x2="  1050" y2="   430" style = "stroke:silver  ;"/>
  <line x1="  2750" y1="  1070" x2="  1050" y2="   510" style = "stroke:silver  ;"/>
  <line x1="  2750" y1="  1230" x2="   800" y2="    30" style = "stroke:silver  ;"/>
  <line x1="  2750" y1="  1270" x2="   800" y2="   110" style = "stroke:silver  ;"/>
  <line x1="  2750" y1="  1310" x2="   800" y2="   190" style = "stroke:silver  ;"/>
  <line x1="  2750" y1="  1350" x2="   800" y2="   270" style = "stroke:silver  ;"/>
  <line x1="  2750" y1="  1390" x2="   800" y2="   350" style = "stroke:silver  ;"/>
  <line x1="  2750" y1="  1430" x2="   800" y2="   430" style = "stroke:silver  ;"/>
  <line x1="  2750" y1="  1470" x2="   800" y2="   510" style = "stroke:silver  ;"/>
  <line x1="  1000" y1="  1190" x2="  2050" y2="   670" style = "stroke:silver  ;"/>
  <rect x="  1200" y="    20" width="   200" height="    20" style = "fill:chartreuse; stroke: Black;"/>     1
  <text x="  1202" y="    33">IT_ROOM_THERMAL_ZONE</text>
  <rect x="   200" y="  1540" width="   200" height="    20" style = "fill:snow; stroke: Black;"/>     8
  <text x="   202" y="  1553">OutdoorAir:NodeList</text>
  <rect x="   200" y="  1620" width="   200" height="    20" style = "fill:snow; stroke: Black;"/>     9
  <text x="   202" y="  1633">OutdoorAir:NodeList</text>
  <rect x="   200" y="  1700" width="   200" height="    20" style = "fill:snow; stroke: Black;"/>    10
  <text x="   202" y="  1713">OutdoorAir:NodeList</text>
  <rect x="   200" y="  1780" width="   200" height="    20" style = "fill:snow; stroke: Black;"/>    11
  <text x="   202" y="  1793">OutdoorAir:NodeList</text>
  <rect x="   200" y="  1860" width="   200" height="    20" style = "fill:snow; stroke: Black;"/>    12
  <text x="   202" y="  1873">OutdoorAir:NodeList</text>
  <rect x="   200" y="  1940" width="   200" height="    20" style = "fill:snow; stroke: Black;"/>    13
  <text x="   202" y="  1953">OutdoorAir:NodeList</text>
  <rect x="   200" y="  2020" width="   200" height="    20" style = "fill:snow; stroke: Black;"/>    14
  <text x="   202" y="  2033">OutdoorAir:NodeList</text>
  <rect x="   900" y="   780" width="   200" height="    20" style = "fill:wheat; stroke: Black;"/>    20
  <text  x="   902" y="   788">HOTWATERLOOP HW SUPPLY SIDE BYPASS
  <tspan x="   902" y="   796">PIPE</tspan></text>
  <rect x="  1600" y="   780" width="   200" height="    20" style = "fill:wheat; stroke: Black;"/>    21
  <text x="  1602" y="   793">HOTWATERLOOP HW SUPPLY OUTLET PIPE</text>
  <rect x="  1950" y="   780" width="   200" height="    20" style = "fill:wheat; stroke: Black;"/>    22
  <text x="  1952" y="   793">HOTWATERLOOP HW DEMAND INLET PIPE</text>
  <rect x="  2650" y="   780" width="   200" height="    20" style = "fill:wheat; stroke: Black;"/>    23
  <text  x="  2652" y="   788">HOTWATERLOOP HW DEMAND SIDE BYPASS
  <tspan x="  2652" y="   796">PIPE</tspan></text>
  <rect x="  3350" y="  1060" width="   200" height="    20" style = "fill:wheat; stroke: Black;"/>    24
  <text x="  3352" y="  1073">HOTWATERLOOP HW DEMAND OUTLET PIPE</text>
  <rect x="   900" y="  1140" width="   200" height="    20" style = "fill:wheat; stroke: Black;"/>    25
  <text  x="   902" y="  1148">CHILLEDWATERLOOP CHW SUPPLY SIDE
  <tspan x="   902" y="  1156">BYPASS PIPE</tspan></text>
  <rect x="  1600" y="  1180" width="   200" height="    20" style = "fill:wheat; stroke: Black;"/>    26
  <text  x="  1602" y="  1188">CHILLEDWATERLOOP CHW SUPPLY OUTLET
  <tspan x="  1602" y="  1196">PIPE</tspan></text>
  <rect x="  1950" y="  1180" width="   200" height="    20" style = "fill:wheat; stroke: Black;"/>    27
  <text  x="  1952" y="  1188">CHILLEDWATERLOOP CHW DEMAND INLET
  <tspan x="  1952" y="  1196">PIPE</tspan></text>
  <rect x="  2650" y="  1180" width="   200" height="    20" style = "fill:wheat; stroke: Black;"/>    28
  <text  x="  2652" y="  1188">CHILLEDWATERLOOP CHW DEMAND SIDE
  <tspan x="  2652" y="  1196">BYPASS PIPE</tspan></text>
  <rect x="  3350" y="  1460" width="   200" height="    20" style = "fill:wheat; stroke: Black;"/>    29
  <text  x="  3352" y="  1468">CHILLEDWATERLOOP CHW DEMAND OUTLET
  <tspan x="  3352" y="  1476">PIPE</tspan></text>
  <rect x="  1200" y="   620" width="   200" height="    20" style = "fill:wheat; stroke: Black;"/>    30
  <text  x="  1202" y="   628">CHILLEDWATERLOOP CNDW SUPPLY OUTLET
  <tspan x="  1202" y="   636">PIPE</tspan></text>
  <rect x="   700" y="   580" width="   200" height="    20" style = "fill:wheat; stroke: Black;"/>    31
  <text  x="   702" y="   588">CHILLEDWATERLOOP CNDW SUPPLY SIDE
  <tspan x="   702" y="   596">BYPASS PIPE</tspan></text>
  <rect x="  1450" y="   620" width="   200" height="    20" style = "fill:wheat; stroke: Black;"/>    32
  <text  x="  1452" y="   628">CHILLEDWATERLOOP CNDW DEMAND INLET
  <tspan x="  1452" y="   636">PIPE</tspan></text>
  <rect x="  1950" y="   620" width="   200" height="    20" style = "fill:wheat; stroke: Black;"/>    33
  <text  x="  1952" y="   628">CHILLEDWATERLOOP CNDW DEMAND SIDE
  <tspan x="  1952" y="   636">BYPASS PIPE</tspan></text>
  <rect x="  2450" y="   660" width="   200" height="    20" style = "fill:wheat; stroke: Black;"/>    34
  <text  x="  2452" y="   668">CHILLEDWATERLOOP CNDW DEMAND OUTLET
  <tspan x="  2452" y="   676">PIPE</tspan></text>
  <rect x="  2300" y="   780" width="   200" height="    20" style = "fill:wheat; stroke: Black;"/>    35
  <text x="  2302" y="   793">HOTWATERLOOP HW DEMAND SPLITTER</text>
  <rect x="  3000" y="  1060" width="   200" height="    20" style = "fill:wheat; stroke: Black;"/>    36
  <text x="  3002" y="  1073">HOTWATERLOOP HW DEMAND MIXER</text>
  <rect x="   900" y="   740" width="   200" height="    20" style = "fill:indianred; stroke: Black;"/>    37
  <text x="   902" y="   753">BOILER</text>
  <rect x="   550" y="   740" width="   200" height="    20" style = "fill:wheat; stroke: Black;"/>    38
  <text x="   552" y="   753">HOTWATERLOOP HW SUPPLY SPLITTER</text>
  <rect x="  1250" y="   780" width="   200" height="    20" style = "fill:wheat; stroke: Black;"/>    39
  <text x="  1252" y="   793">HOTWATERLOOP HW SUPPLY MIXER</text>
  <rect x="  2300" y="  1180" width="   200" height="    20" style = "fill:wheat; stroke: Black;"/>    40
  <text x="  2302" y="  1193">CHILLEDWATERLOOP CHW DEMAND SPLITTER</text>
  <rect x="  3000" y="  1460" width="   200" height="    20" style = "fill:wheat; stroke: Black;"/>    41
  <text x="  3002" y="  1473">CHILLEDWATERLOOP CHW DEMAND MIXER</text>
  <rect x="   550" y="  1140" width="   200" height="    20" style = "fill:wheat; stroke: Black;"/>    42
  <text x="   552" y="  1153">CHILLEDWATERLOOP CHW SUPPLY SPLITTER</text>
  <rect x="  1250" y="  1180" width="   200" height="    20" style = "fill:wheat; stroke: Black;"/>    43
  <text x="  1252" y="  1193">CHILLEDWATERLOOP CHW SUPPLY MIXER</text>
  <rect x="  1700" y="   620" width="   200" height="    20" style = "fill:wheat; stroke: Black;"/>    44
  <text  x="  1702" y="   628">CHILLEDWATERLOOP CNDW DEMAND
  <tspan x="  1702" y="   636">SPLITTER</tspan></text>
  <rect x="  2200" y="   660" width="   200" height="    20" style = "fill:wheat; stroke: Black;"/>    45
  <text x="  2202" y="   673">CHILLEDWATERLOOP CNDW DEMAND MIXER</text>
  <rect x="   700" y="   620" width="   200" height="    20" style = "fill:pink; stroke: Black;"/>    46
  <text x="   702" y="   633">COOLINGTOWER</text>
  <rect x="   450" y="   580" width="   200" height="    20" style = "fill:wheat; stroke: Black;"/>    47
  <text  x="   452" y="   588">CHILLEDWATERLOOP CNDW SUPPLY
  <tspan x="   452" y="   596">SPLITTER</tspan></text>
  <rect x="   950" y="   620" width="   200" height="    20" style = "fill:wheat; stroke: Black;"/>    48
  <text x="   952" y="   633">CHILLEDWATERLOOP CNDW SUPPLY MIXER</text>
  <rect x="   200" y="    20" width="   200" height="    20" style = "fill:lawngreen; stroke: Black;"/>    49
  <text x="   202" y="    33">IT_ROOM_THERMAL_ZONE OA MIXING BOX</text>
  <rect x="   200" y="   100" width="   200" height="    20" style = "fill:lawngreen; stroke: Black;"/>    50
  <text x="   202" y="   113">LOBBY_THERMAL_ZONE OA MIXING BOX</text>
  <rect x="   200" y="   180" width="   200" height="    20" style = "fill:lawngreen; stroke: Black;"/>    51
  <text x="   202" y="   193">OFFICE_THERMAL_ZONE OA MIXING BOX</text>
  <rect x="   200" y="   260" width="   200" height="    20" style = "fill:lawngreen; stroke: Black;"/>    52
  <text  x="   202" y="   268">RESTROOM_ONE_THERMAL_ZONE OA MIXING
  <tspan x="   202" y="   276">BOX</tspan></text>
  <rect x="   200" y="   340" width="   200" height="    20" style = "fill:lawngreen; stroke: Black;"/>    53
  <text  x="   202" y="   348">RESTROOM_TWO_THERMAL_ZONE OA MIXING
  <tspan x="   202" y="   356">BOX</tspan></text>
  <rect x="   200" y="   420" width="   200" height="    20" style = "fill:lawngreen; stroke: Black;"/>    54
  <text x="   202" y="   433">STAIRS_THERMAL_ZONE OA MIXING BOX</text>
  <rect x="   200" y="   500" width="   200" height="    20" style = "fill:lawngreen; stroke: Black;"/>    55
  <text x="   202" y="   513">STORAGE_THERMAL_ZONE OA MIXING BOX</text>
  <rect x="  2650" y="   820" width="   200" height="    20" style = "fill:salmon; stroke: Black;"/>    56
  <text x="  2652" y="   833">IT_ROOM_THERMAL_ZONE HEATING COIL</text>
  <rect x="   950" y="    20" width="   200" height="    20" style = "fill:salmon; stroke: Black;"/>    57
  <text x="   952" y="    33">IT_ROOM_THERMAL_ZONE HEATING COIL</text>
  <rect x="  2650" y="   860" width="   200" height="    20" style = "fill:salmon; stroke: Black;"/>    58
  <text x="  2652" y="   873">LOBBY_THERMAL_ZONE HEATING COIL</text>
  <rect x="   950" y="   100" width="   200" height="    20" style = "fill:salmon; stroke: Black;"/>    59
  <text x="   952" y="   113">LOBBY_THERMAL_ZONE HEATING COIL</text>
  <rect x="  2650" y="   900" width="   200" height="    20" style = "fill:salmon; stroke: Black;"/>    60
  <text x="  2652" y="   913">OFFICE_THERMAL_ZONE HEATING COIL</text>
  <rect x="   950" y="   180" width="   200" height="    20" style = "fill:salmon; stroke: Black;"/>    61
  <text x="   952" y="   193">OFFICE_THERMAL_ZONE HEATING COIL</text>
  <rect x="  2650" y="   940" width="   200" height="    20" style = "fill:salmon; stroke: Black;"/>    62
  <text  x="  2652" y="   948">RESTROOM_ONE_THERMAL_ZONE HEATING
  <tspan x="  2652" y="   956">COIL</tspan></text>
  <rect x="   950" y="   260" width="   200" height="    20" style = "fill:salmon; stroke: Black;"/>    63
  <text  x="   952" y="   268">RESTROOM_ONE_THERMAL_ZONE HEATING
  <tspan x="   952" y="   276">COIL</tspan></text>
  <rect x="  2650" y="   980" width="   200" height="    20" style = "fill:salmon; stroke: Black;"/>    64
  <text  x="  2652" y="   988">RESTROOM_TWO_THERMAL_ZONE HEATING
  <tspan x="  2652" y="   996">COIL</tspan></text>
  <rect x="   950" y="   340" width="   200" height="    20" style = "fill:salmon; stroke: Black;"/>    65
  <text  x="   952" y="   348">RESTROOM_TWO_THERMAL_ZONE HEATING
  <tspan x="   952" y="   356">COIL</tspan></text>
  <rect x="  2650" y="  1020" width="   200" height="    20" style = "fill:salmon; stroke: Black;"/>    66
  <text x="  2652" y="  1033">STAIRS_THERMAL_ZONE HEATING COIL</text>
  <rect x="   950" y="   420" width="   200" height="    20" style = "fill:salmon; stroke: Black;"/>    67
  <text x="   952" y="   433">STAIRS_THERMAL_ZONE HEATING COIL</text>
  <rect x="  2650" y="  1060" width="   200" height="    20" style = "fill:salmon; stroke: Black;"/>    68
  <text x="  2652" y="  1073">STORAGE_THERMAL_ZONE HEATING COIL</text>
  <rect x="   950" y="   500" width="   200" height="    20" style = "fill:salmon; stroke: Black;"/>    69
  <text x="   952" y="   513">STORAGE_THERMAL_ZONE HEATING COIL</text>
  <rect x="  2650" y="  1220" width="   200" height="    20" style = "fill:skyblue; stroke: Black;"/>    70
  <text x="  2652" y="  1233">IT_ROOM_THERMAL_ZONE COOLING COIL</text>
  <rect x="   700" y="    20" width="   200" height="    20" style = "fill:skyblue; stroke: Black;"/>    71
  <text x="   702" y="    33">IT_ROOM_THERMAL_ZONE COOLING COIL</text>
  <rect x="  2650" y="  1260" width="   200" height="    20" style = "fill:skyblue; stroke: Black;"/>    72
  <text x="  2652" y="  1273">LOBBY_THERMAL_ZONE COOLING COIL</text>
  <rect x="   700" y="   100" width="   200" height="    20" style = "fill:skyblue; stroke: Black;"/>    73
  <text x="   702" y="   113">LOBBY_THERMAL_ZONE COOLING COIL</text>
  <rect x="  2650" y="  1300" width="   200" height="    20" style = "fill:skyblue; stroke: Black;"/>    74
  <text x="  2652" y="  1313">OFFICE_THERMAL_ZONE COOLING COIL</text>
  <rect x="   700" y="   180" width="   200" height="    20" style = "fill:skyblue; stroke: Black;"/>    75
  <text x="   702" y="   193">OFFICE_THERMAL_ZONE COOLING COIL</text>
  <rect x="  2650" y="  1340" width="   200" height="    20" style = "fill:skyblue; stroke: Black;"/>    76
  <text  x="  2652" y="  1348">RESTROOM_ONE_THERMAL_ZONE COOLING
  <tspan x="  2652" y="  1356">COIL</tspan></text>
  <rect x="   700" y="   260" width="   200" height="    20" style = "fill:skyblue; stroke: Black;"/>    77
  <text  x="   702" y="   268">RESTROOM_ONE_THERMAL_ZONE COOLING
  <tspan x="   702" y="   276">COIL</tspan></text>
  <rect x="  2650" y="  1380" width="   200" height="    20" style = "fill:skyblue; stroke: Black;"/>    78
  <text  x="  2652" y="  1388">RESTROOM_TWO_THERMAL_ZONE COOLING
  <tspan x="  2652" y="  1396">COIL</tspan></text>
  <rect x="   700" y="   340" width="   200" height="    20" style = "fill:skyblue; stroke: Black;"/>    79
  <text  x="   702" y="   348">RESTROOM_TWO_THERMAL_ZONE COOLING
  <tspan x="   702" y="   356">COIL</tspan></text>
  <rect x="  2650" y="  1420" width="   200" height="    20" style = "fill:skyblue; stroke: Black;"/>    80
  <text x="  2652" y="  1433">STAIRS_THERMAL_ZONE COOLING COIL</text>
  <rect x="   700" y="   420" width="   200" height="    20" style = "fill:skyblue; stroke: Black;"/>    81
  <text x="   702" y="   433">STAIRS_THERMAL_ZONE COOLING COIL</text>
  <rect x="  2650" y="  1460" width="   200" height="    20" style = "fill:skyblue; stroke: Black;"/>    82
  <text x="  2652" y="  1473">STORAGE_THERMAL_ZONE COOLING COIL</text>
  <rect x="   700" y="   500" width="   200" height="    20" style = "fill:skyblue; stroke: Black;"/>    83
  <text x="   702" y="   513">STORAGE_THERMAL_ZONE COOLING COIL</text>
  <rect x="   450" y="    20" width="   200" height="    20" style = "fill:aliceblue; stroke: Black;"/>    84
  <text x="   452" y="    33">IT_ROOM_THERMAL_ZONE SUPPLY FAN</text>
  <rect x="   450" y="   100" width="   200" height="    20" style = "fill:aliceblue; stroke: Black;"/>    85
  <text x="   452" y="   113">LOBBY_THERMAL_ZONE SUPPLY FAN</text>
  <rect x="   450" y="   180" width="   200" height="    20" style = "fill:aliceblue; stroke: Black;"/>    86
  <text x="   452" y="   193">OFFICE_THERMAL_ZONE SUPPLY FAN</text>
  <rect x="   450" y="   260" width="   200" height="    20" style = "fill:aliceblue; stroke: Black;"/>    87
  <text x="   452" y="   273">RESTROOM_ONE_THERMAL_ZONE SUPPLY FAN</text>
  <rect x="   450" y="   340" width="   200" height="    20" style = "fill:aliceblue; stroke: Black;"/>    88
  <text x="   452" y="   353">RESTROOM_TWO_THERMAL_ZONE SUPPLY FAN</text>
  <rect x="   450" y="   420" width="   200" height="    20" style = "fill:aliceblue; stroke: Black;"/>    89
  <text x="   452" y="   433">STAIRS_THERMAL_ZONE SUPPLY FAN</text>
  <rect x="   450" y="   500" width="   200" height="    20" style = "fill:aliceblue; stroke: Black;"/>    90
  <text x="   452" y="   513">STORAGE_THERMAL_ZONE SUPPLY FAN</text>
  <rect x="   900" y="  1180" width="   200" height="    20" style = "fill:powderblue; stroke: Black;"/>    91
  <text x="   902" y="  1193">CHILLER</text>
  <rect x="  1950" y="   660" width="   200" height="    20" style = "fill:powderblue; stroke: Black;"/>    92
  <text x="  1952" y="   673">CHILLER</text>
  <rect x="   200" y="   580" width="   200" height="    20" style = "fill:springgreen; stroke: Black;"/>    93
  <text x="   202" y="   593">CHILLEDWATERLOOP CNDW SUPPLY PUMP</text>
  <rect x="   200" y="   740" width="   200" height="    20" style = "fill:springgreen; stroke: Black;"/>    94
  <text x="   202" y="   753">HOTWATERLOOP HW SUPPLY PUMP</text>
  <rect x="   200" y="  1140" width="   200" height="    20" style = "fill:springgreen; stroke: Black;"/>    95
  <text x="   202" y="  1153">CHILLEDWATERLOOP CHW SUPPLY PUMP</text>
  <rect x="  1200" y="   100" width="   200" height="    20" style = "fill:chartreuse; stroke: Black;"/>    96
  <text x="  1202" y="   113">LOBBY_THERMAL_ZONE</text>
  <rect x="  1200" y="   180" width="   200" height="    20" style = "fill:chartreuse; stroke: Black;"/>    97
  <text x="  1202" y="   193">OFFICE_THERMAL_ZONE</text>
  <rect x="  1200" y="   260" width="   200" height="    20" style = "fill:chartreuse; stroke: Black;"/>    98
  <text x="  1202" y="   273">RESTROOM_ONE_THERMAL_ZONE</text>
  <rect x="  1200" y="   340" width="   200" height="    20" style = "fill:chartreuse; stroke: Black;"/>    99
  <text x="  1202" y="   353">RESTROOM_TWO_THERMAL_ZONE</text>
  <rect x="  1200" y="   420" width="   200" height="    20" style = "fill:chartreuse; stroke: Black;"/>   100
  <text x="  1202" y="   433">STAIRS_THERMAL_ZONE</text>
  <rect x="  1200" y="   500" width="   200" height="    20" style = "fill:chartreuse; stroke: Black;"/>   101
  <text x="  1202" y="   513">STORAGE_THERMAL_ZONE</text>
  <line x1="  1100" y1="   790" x2="  1250" y2="   790" style = "stroke: Black;"/>
  <line x1="  1800" y1="   790" x2="  1950" y2="   790" style = "stroke: Black;"/>
  <line x1="  2150" y1="   790" x2="  2300" y2="   790" style = "stroke: Black;"/>
  <line x1="  2850" y1="   790" x2="  3000" y2="  1070" style = "stroke: Black;"/>
  <line x1="  1100" y1="  1150" x2="  1250" y2="  1190" style = "stroke: Black;"/>
  <line x1="  1800" y1="  1190" x2="  1950" y2="  1190" style = "stroke: Black;"/>
  <line x1="  2150" y1="  1190" x2="  2300" y2="  1190" style = "stroke: Black;"/>
  <line x1="  2850" y1="  1190" x2="  3000" y2="  1470" style = "stroke: Black;"/>
  <line x1="  1400" y1="   630" x2="  1450" y2="   630" style = "stroke: Black;"/>
  <line x1="   900" y1="   590" x2="   950" y2="   630" style = "stroke: Black;"/>
  <line x1="  1650" y1="   630" x2="  1700" y2="   630" style = "stroke: Black;"/>
  <line x1="  2150" y1="   630" x2="  2200" y2="   670" style = "stroke: Black;"/>
  <line x1="  2500" y1="   790" x2="  2650" y2="   790" style = "stroke: Black;"/>
  <line x1="  2500" y1="   790" x2="  2650" y2="   830" style = "stroke: Black;"/>
  <line x1="  2500" y1="   790" x2="  2650" y2="   870" style = "stroke: Black;"/>
  <line x1="  2500" y1="   790" x2="  2650" y2="   910" style = "stroke: Black;"/>
  <line x1="  2500" y1="   790" x2="  2650" y2="   950" style = "stroke: Black;"/>
  <line x1="  2500" y1="   790" x2="  2650" y2="   990" style = "stroke: Black;"/>
  <line x1="  2500" y1="   790" x2="  2650" y2="  1030" style = "stroke: Black;"/>
  <line x1="  2500" y1="   790" x2="  2650" y2="  1070" style = "stroke: Black;"/>
  <line x1="  3200" y1="  1070" x2="  3350" y2="  1070" style = "stroke: Black;"/>
  <line x1="  1100" y1="   750" x2="  1250" y2="   790" style = "stroke: Black;"/>
  <line x1="   750" y1="   750" x2="   900" y2="   750" style = "stroke: Black;"/>
  <line x1="   750" y1="   750" x2="   900" y2="   790" style = "stroke: Black;"/>
  <line x1="  1450" y1="   790" x2="  1600" y2="   790" style = "stroke: Black;"/>
  <line x1="  2500" y1="  1190" x2="  2650" y2="  1190" style = "stroke: Black;"/>
  <line x1="  2500" y1="  1190" x2="  2650" y2="  1230" style = "stroke: Black;"/>
  <line x1="  2500" y1="  1190" x2="  2650" y2="  1270" style = "stroke: Black;"/>
  <line x1="  2500" y1="  1190" x2="  2650" y2="  1310" style = "stroke: Black;"/>
  <line x1="  2500" y1="  1190" x2="  2650" y2="  1350" style = "stroke: Black;"/>
  <line x1="  2500" y1="  1190" x2="  2650" y2="  1390" style = "stroke: Black;"/>
  <line x1="  2500" y1="  1190" x2="  2650" y2="  1430" style = "stroke: Black;"/>
  <line x1="  2500" y1="  1190" x2="  2650" y2="  1470" style = "stroke: Black;"/>
  <line x1="  3200" y1="  1470" x2="  3350" y2="  1470" style = "stroke: Black;"/>
  <line x1="   750" y1="  1150" x2="   900" y2="  1150" style = "stroke: Black;"/>
  <line x1="   750" y1="  1150" x2="   900" y2="  1190" style = "stroke: Black;"/>
  <line x1="  1450" y1="  1190" x2="  1600" y2="  1190" style = "stroke: Black;"/>
  <line x1="  1900" y1="   630" x2="  1950" y2="   630" style = "stroke: Black;"/>
  <line x1="  1900" y1="   630" x2="  1950" y2="   670" style = "stroke: Black;"/>
  <line x1="  2400" y1="   670" x2="  2450" y2="   670" style = "stroke: Black;"/>
  <line x1="   900" y1="   630" x2="   950" y2="   630" style = "stroke: Black;"/>
  <line x1="   650" y1="   590" x2="   700" y2="   590" style = "stroke: Black;"/>
  <line x1="   650" y1="   590" x2="   700" y2="   630" style = "stroke: Black;"/>
  <line x1="  1150" y1="   630" x2="  1200" y2="   630" style = "stroke: Black;"/>
  <line x1="   400" y1="    30" x2="   450" y2="    30" style = "stroke: Black;"/>
  <line x1="   400" y1="   110" x2="   450" y2="   110" style = "stroke: Black;"/>
  <line x1="   400" y1="   190" x2="   450" y2="   190" style = "stroke: Black;"/>
  <line x1="   400" y1="   270" x2="   450" y2="   270" style = "stroke: Black;"/>
  <line x1="   400" y1="   350" x2="   450" y2="   350" style = "stroke: Black;"/>
  <line x1="   400" y1="   430" x2="   450" y2="   430" style = "stroke: Black;"/>
  <line x1="   400" y1="   510" x2="   450" y2="   510" style = "stroke: Black;"/>
  <line x1="  2850" y1="   830" x2="  3000" y2="  1070" style = "stroke: Black;"/>
  <line x1="  1150" y1="    30" x2="  1200" y2="    30" style = "stroke: Black;"/>
  <line x1="  2850" y1="   870" x2="  3000" y2="  1070" style = "stroke: Black;"/>
  <line x1="  1150" y1="   110" x2="  1200" y2="   110" style = "stroke: Black;"/>
  <line x1="  2850" y1="   910" x2="  3000" y2="  1070" style = "stroke: Black;"/>
  <line x1="  1150" y1="   190" x2="  1200" y2="   190" style = "stroke: Black;"/>
  <line x1="  2850" y1="   950" x2="  3000" y2="  1070" style = "stroke: Black;"/>
  <line x1="  1150" y1="   270" x2="  1200" y2="   270" style = "stroke: Black;"/>
  <line x1="  2850" y1="   990" x2="  3000" y2="  1070" style = "stroke: Black;"/>
  <line x1="  1150" y1="   350" x2="  1200" y2="   350" style = "stroke: Black;"/>
  <line x1="  2850" y1="  1030" x2="  3000" y2="  1070" style = "stroke: Black;"/>
  <line x1="  1150" y1="   430" x2="  1200" y2="   430" style = "stroke: Black;"/>
  <line x1="  2850" y1="  1070" x2="  3000" y2="  1070" style = "stroke: Black;"/>
  <line x1="  1150" y1="   510" x2="  1200" y2="   510" style = "stroke: Black;"/>
  <line x1="  2850" y1="  1230" x2="  3000" y2="  1470" style = "stroke: Black;"/>
  <line x1="   900" y1="    30" x2="   950" y2="    30" style = "stroke: Black;"/>
  <line x1="  2850" y1="  1270" x2="  3000" y2="  1470" style = "stroke: Black;"/>
  <line x1="   900" y1="   110" x2="   950" y2="   110" style = "stroke: Black;"/>
  <line x1="  2850" y1="  1310" x2="  3000" y2="  1470" style = "stroke: Black;"/>
  <line x1="   900" y1="   190" x2="   950" y2="   190" style = "stroke: Black;"/>
  <line x1="  2850" y1="  1350" x2="  3000" y2="  1470" style = "stroke: Black;"/>
  <line x1="   900" y1="   270" x2="   950" y2="   270" style = "stroke: Black;"/>
  <line x1="  2850" y1="  1390" x2="  3000" y2="  1470" style = "stroke: Black;"/>
  <line x1="   900" y1="   350" x2="   950" y2="   350" style = "stroke: Black;"/>
  <line x1="  2850" y1="  1430" x2="  3000" y2="  1470" style = "stroke: Black;"/>
  <line x1="   900" y1="   430" x2="   950" y2="   430" style = "stroke: Black;"/>
  <line x1="  2850" y1="  1470" x2="  3000" y2="  1470" style = "stroke: Black;"/>
  <line x1="   900" y1="   510" x2="   950" y2="   510" style = "stroke: Black;"/>
  <line x1="   650" y1="    30" x2="   700" y2="    30" style = "stroke: Black;"/>
  <line x1="   650" y1="   110" x2="   700" y2="   110" style = "stroke: Black;"/>
  <line x1="   650" y1="   190" x2="   700" y2="   190" style = "stroke: Black;"/>
  <line x1="   650" y1="   270" x2="   700" y2="   270" style = "stroke: Black;"/>
  <line x1="   650" y1="   350" x2="   700" y2="   350" style = "stroke: Black;"/>
  <line x1="   650" y1="   430" x2="   700" y2="   430" style = "stroke: Black;"/>
  <line x1="   650" y1="   510" x2="   700" y2="   510" style = "stroke: Black;"/>
  <line x1="  1100" y1="  1190" x2="  1250" y2="  1190" style = "stroke: Black;"/>
  <line x1="  2150" y1="   670" x2="  2200" y2="   670" style = "stroke: Black;"/>
  <line x1="   400" y1="   590" x2="   450" y2="   590" style = "stroke: Black;"/>
  <line x1="   400" y1="   750" x2="   550" y2="   750" style = "stroke: Black;"/>
  <line x1="   400" y1="  1150" x2="   550" y2="  1150" style = "stroke: Black;"/>
  <line x1="   200" y1="    30" x2="   175" y2="    30" style = "stroke: Black;"/>
  <line x1="   175" y1="    30" x2="   175" y2="     0" style = "stroke: Black;"/>
  <line x1="   175" y1="     0" x2="  1425" y2="     0" style = "stroke: Black;"/>
  <line x1="  1425" y1="     0" x2="  1425" y2="    30" style = "stroke: Black;"/>
  <line x1="  1425" y1="    30" x2="  1400" y2="    30" style = "stroke: Black;"/>
  <line x1="   200" y1="   110" x2="   175" y2="   110" style = "stroke: Black;"/>
  <line x1="   175" y1="   110" x2="   175" y2="    80" style = "stroke: Black;"/>
  <line x1="   175" y1="    80" x2="  1425" y2="    80" style = "stroke: Black;"/>
  <line x1="  1425" y1="    80" x2="  1425" y2="   110" style = "stroke: Black;"/>
  <line x1="  1425" y1="   110" x2="  1400" y2="   110" style = "stroke: Black;"/>
  <line x1="   200" y1="   190" x2="   175" y2="   190" style = "stroke: Black;"/>
  <line x1="   175" y1="   190" x2="   175" y2="   160" style = "stroke: Black;"/>
  <line x1="   175" y1="   160" x2="  1425" y2="   160" style = "stroke: Black;"/>
  <line x1="  1425" y1="   160" x2="  1425" y2="   190" style = "stroke: Black;"/>
  <line x1="  1425" y1="   190" x2="  1400" y2="   190" style = "stroke: Black;"/>
  <line x1="   200" y1="   270" x2="   175" y2="   270" style = "stroke: Black;"/>
  <line x1="   175" y1="   270" x2="   175" y2="   240" style = "stroke: Black;"/>
  <line x1="   175" y1="   240" x2="  1425" y2="   240" style = "stroke: Black;"/>
  <line x1="  1425" y1="   240" x2="  1425" y2="   270" style = "stroke: Black;"/>
  <line x1="  1425" y1="   270" x2="  1400" y2="   270" style = "stroke: Black;"/>
  <line x1="   200" y1="   350" x2="   175" y2="   350" style = "stroke: Black;"/>
  <line x1="   175" y1="   350" x2="   175" y2="   320" style = "stroke: Black;"/>
  <line x1="   175" y1="   320" x2="  1425" y2="   320" style = "stroke: Black;"/>
  <line x1="  1425" y1="   320" x2="  1425" y2="   350" style = "stroke: Black;"/>
  <line x1="  1425" y1="   350" x2="  1400" y2="   350" style = "stroke: Black;"/>
  <line x1="   200" y1="   430" x2="   175" y2="   430" style = "stroke: Black;"/>
  <line x1="   175" y1="   430" x2="   175" y2="   400" style = "stroke: Black;"/>
  <line x1="   175" y1="   400" x2="  1425" y2="   400" style = "stroke: Black;"/>
  <line x1="  1425" y1="   400" x2="  1425" y2="   430" style = "stroke: Black;"/>
  <line x1="  1425" y1="   430" x2="  1400" y2="   430" style = "stroke: Black;"/>
  <line x1="   200" y1="   510" x2="   175" y2="   510" style = "stroke: Black;"/>
  <line x1="   175" y1="   510" x2="   175" y2="   480" style = "stroke: Black;"/>
  <line x1="   175" y1="   480" x2="  1425" y2="   480" style = "stroke: Black;"/>
  <line x1="  1425" y1="   480" x2="  1425" y2="   510" style = "stroke: Black;"/>
  <line x1="  1425" y1="   510" x2="  1400" y2="   510" style = "stroke: Black;"/>
  <line x1="   200" y1="   590" x2="   175" y2="   590" style = "stroke: Black;"/>
  <line x1="   175" y1="   590" x2="   175" y2="   560" style = "stroke: Black;"/>
  <line x1="   175" y1="   560" x2="  2675" y2="   560" style = "stroke: Black;"/>
  <line x1="  2675" y1="   560" x2="  2675" y2="   670" style = "stroke: Black;"/>
  <line x1="  2675" y1="   670" x2="  2650" y2="   670" style = "stroke: Black;"/>
  <line x1="   200" y1="   750" x2="   175" y2="   750" style = "stroke: Black;"/>
  <line x1="   175" y1="   750" x2="   175" y2="   720" style = "stroke: Black;"/>
  <line x1="   175" y1="   720" x2="  3575" y2="   720" style = "stroke: Black;"/>
  <line x1="  3575" y1="   720" x2="  3575" y2="  1070" style = "stroke: Black;"/>
  <line x1="  3575" y1="  1070" x2="  3550" y2="  1070" style = "stroke: Black;"/>
  <line x1="   200" y1="  1150" x2="   175" y2="  1150" style = "stroke: Black;"/>
  <line x1="   175" y1="  1150" x2="   175" y2="  1120" style = "stroke: Black;"/>
  <line x1="   175" y1="  1120" x2="  3575" y2="  1120" style = "stroke: Black;"/>
  <line x1="  3575" y1="  1120" x2="  3575" y2="  1470" style = "stroke: Black;"/>
  <line x1="  3575" y1="  1470" x2="  3550" y2="  1470" style = "stroke: Black;"/>
  <text x="   200" y="  2080">Unused Non-Parent Objects:</text>
  <text x="   220" y="  2100">OutdoorAir:Node</text>
  <text x="   220" y="  2120">OutdoorAir:Node</text>
  <text x="   220" y="  2140">HOTWATERLOOP HW TEMP MANAGER</text>
  <text x="   220" y="  2160">CHILLEDWATERLOOP CHW TEMP MANAGER</text>
  <text x="   220" y="  2180">CHILLEDWATERLOOP CNDW TEMP MANAGER</text>
  <text x="   200" y="  2220">
The following are not supported: objects related to controls, AirTerminal:SingleDuct:Uncontrolled, or ZoneHVAC:IdealLoadsAirSystem</text>
</g>
</svg>
